<svg xmlns="http://www.w3.org/2000/svg" viewBox="0 0 248.11 177.65"><defs><style>.cls-1,.cls-2{fill:#54565a;}.cls-1{fill-rule:evenodd;}.cls-3{fill:#c3c078;}</style></defs><title>Asset 20</title><g id="Layer_2" data-name="Layer 2"><g id="Layer_1-2" data-name="Layer 1"><path class="cls-1" d="M211.51,72.53a36.5,36.5,0,0,0-36.57,36.6,36.25,36.25,0,0,0,36.57,36.58A35.41,35.41,0,0,0,237.4,135a34.88,34.88,0,0,0,10.71-25.9,35.43,35.43,0,0,0-10.75-25.84A35,35,0,0,0,211.51,72.53Zm16.67,53.3A23.54,23.54,0,0,1,188,109.13a23.57,23.57,0,1,1,40.21,16.7Z"/><path class="cls-2" d="M135.84,145.57a31.38,31.38,0,0,0,31.73-31.74V72.39h-13v41.44a18.83,18.83,0,0,1-18.76,18.7,18.54,18.54,0,0,1-18.69-18.7V72.39h-13v41.44a31.38,31.38,0,0,0,31.71,31.74Z"/><path class="cls-2" d="M59,100.85l23.69,44.94,12.52-.14V44.12h-14V115L77,108c-2.22-3.71-3.81-7.06-5.22-10-3.64-7.61-6.27-13.12-16.46-19.74a34.33,34.33,0,0,0-18.75-5.2C15.36,73.08,4.19,88,1.07,100.72c-3.19,13,0,31.87,19.6,42.05l.22.13c2.6,1.75,13.72,3.24,20,3.33v-13c-4.28-.08-11-.71-14.11-1.88l-.22-.1c-8.31-4.3-12.7-11.46-12.7-20.71,0-11.44,6.77-20.5,17.26-23.09C40.28,85.14,52.42,88.43,59,100.85Z"/><path class="cls-3" d="M135.85,12.54a19.18,19.18,0,1,1,0,38.36H116.67V31.72a19.21,19.21,0,0,1,19.18-19.18m0-12.54a31.72,31.72,0,0,0-31.72,31.72V63.44h31.72a31.72,31.72,0,0,0,0-63.44Z"/><path class="cls-2" d="M5.49,177.65c-3,0-5.49-2.34-5.49-6.45s2.46-6.62,5.69-6.62a4.53,4.53,0,0,1,3.37,1.25v2H9a4.07,4.07,0,0,0-3.32-1.6c-2.13,0-3.93,1.68-3.93,4.91,0,3.42,2,4.92,3.93,4.92A4.11,4.11,0,0,0,9,174.51h.1v1.83A5,5,0,0,1,5.49,177.65Z"/><path class="cls-2" d="M16.78,177.65c-3.16,0-5.49-2.56-5.49-6.53s2.46-6.54,5.57-6.54,5.47,2.45,5.47,6.54C22.33,175.06,20,177.65,16.78,177.65Zm0-11.47c-2.26,0-3.81,2-3.81,4.94s1.6,4.9,3.86,4.9,3.76-2,3.76-4.9S19.14,166.18,16.81,166.18Z"/><path class="cls-2" d="M26.14,177.32V164.93h1.63V167a4.18,4.18,0,0,1,3.77-2.38A3.21,3.21,0,0,1,35,167.19a11.63,11.63,0,0,1,.21,2.76v7.37H33.57V170.1a8,8,0,0,0-.3-2.54,2.15,2.15,0,0,0-2.13-1.28,3.83,3.83,0,0,0-3.34,2.31v8.73Z"/><path class="cls-2" d="M39,174.39h.1a5.18,5.18,0,0,0,3.79,1.68c1.91,0,2.34-.88,2.34-1.91s-.51-1.56-2.09-2.11l-1.58-.52a3.22,3.22,0,0,1-2.43-3.32c0-2.15,1.53-3.63,4.09-3.63a5.34,5.34,0,0,1,3.21,1v1.84h-.1a4.65,4.65,0,0,0-3.24-1.28c-1.63,0-2.28.9-2.28,1.88s.4,1.58,1.61,2l1.75.58c1.83.57,2.76,1.68,2.76,3.36,0,2-1.18,3.69-4.09,3.69A5.61,5.61,0,0,1,39,176.27Z"/><path class="cls-2" d="M53.11,177.6a2.57,2.57,0,0,1-2.25-1.16,5.5,5.5,0,0,1-.5-2.83v-7.18H48.7v-1.5h1.68s0-.15,0-3.61H52v3.61h2.76v1.5H52v7.1a4.27,4.27,0,0,0,.25,1.73,1.33,1.33,0,0,0,1.33.71,2.62,2.62,0,0,0,1.56-.53h.1V177A3.64,3.64,0,0,1,53.11,177.6Z"/><path class="cls-2" d="M57.93,177.32V164.93h1.63v1.95a3,3,0,0,1,2.81-2.3,2,2,0,0,1,1.28.37v1.88h-.1a1.82,1.82,0,0,0-1.28-.4,2.78,2.78,0,0,0-2.68,2.29v8.6Z"/><path class="cls-2" d="M73.91,177.32v-1.7a4.11,4.11,0,0,1-3.73,2A3.35,3.35,0,0,1,66.56,175a14.71,14.71,0,0,1-.25-2.94v-7.12h1.58v6.9a9.06,9.06,0,0,0,.33,2.71,2.18,2.18,0,0,0,2.26,1.38,4.09,4.09,0,0,0,3.38-2v-8.95h1.56v12.39Z"/><path class="cls-2" d="M84.55,177.65c-3,0-5.49-2.34-5.49-6.45s2.46-6.62,5.69-6.62a4.49,4.49,0,0,1,3.36,1.25v2H88a4,4,0,0,0-3.31-1.6c-2.13,0-3.94,1.68-3.94,4.91,0,3.42,2,4.92,3.94,4.92a4.08,4.08,0,0,0,3.36-1.53h.1v1.83A4.94,4.94,0,0,1,84.55,177.65Z"/><path class="cls-2" d="M95.84,177.65c-3,0-5.49-2.34-5.49-6.45s2.46-6.62,5.69-6.62a4.49,4.49,0,0,1,3.36,1.25v2h-.1a4,4,0,0,0-3.31-1.6c-2.13,0-3.94,1.68-3.94,4.91,0,3.42,2,4.92,3.94,4.92a4.08,4.08,0,0,0,3.36-1.53h.1v1.83A4.94,4.94,0,0,1,95.84,177.65Z"/><path class="cls-2" d="M103.75,162.07a1.1,1.1,0,0,1-1.13-1.21,1.13,1.13,0,1,1,1.13,1.21Zm-.83,15.25V164.93h1.65v12.39Z"/><path class="cls-2" d="M113.88,177.65c-3.16,0-5.49-2.56-5.49-6.53s2.46-6.54,5.57-6.54,5.47,2.45,5.47,6.54C119.43,175.06,117,177.65,113.88,177.65Zm0-11.47c-2.26,0-3.82,2-3.82,4.94S111.7,176,114,176s3.76-2,3.76-4.9S116.24,166.18,113.91,166.18Zm-1.71-3.33v-.1l2.76-4h2.18v.1l-3.41,4Z"/><path class="cls-2" d="M123.24,177.32V164.93h1.63V167a4.17,4.17,0,0,1,3.77-2.38,3.21,3.21,0,0,1,3.48,2.56,11.72,11.72,0,0,1,.2,2.76v7.37h-1.65V170.1a8,8,0,0,0-.3-2.54,2.15,2.15,0,0,0-2.14-1.28,3.81,3.81,0,0,0-3.33,2.31v8.73Z"/><path class="cls-2" d="M151,177.32v-2.11a3.83,3.83,0,0,1-3.86,2.44c-2.66,0-5.34-2.16-5.34-6.43,0-4.54,2.83-6.64,5.49-6.64a3.74,3.74,0,0,1,3.71,2v-7.52h1.66v18.26Zm0-8.38a3.57,3.57,0,0,0-3.56-2.76c-2,0-3.94,1.28-3.94,5,0,3.49,1.88,4.82,3.84,4.82a3.82,3.82,0,0,0,3.66-2.91Z"/><path class="cls-2" d="M162.1,177.65c-3.53,0-5.66-2.64-5.66-6.45,0-4.29,2.45-6.62,5.21-6.62,3.14,0,4.72,2.18,4.74,5.79a8.79,8.79,0,0,1-.07,1.33h-8.15c.12,2.51,1.5,4.34,4,4.34a5,5,0,0,0,3.78-1.6h.1v1.75A5.7,5.7,0,0,1,162.1,177.65Zm2.61-7.63c0-2.43-1.07-3.91-3.21-3.91-1.4,0-3.11,1.15-3.33,4.11h6.54Z"/><path class="cls-2" d="M175.78,177.32V164.93h1.63v2a4,4,0,0,1,3.66-2.33,3,3,0,0,1,3.29,2.35,4.37,4.37,0,0,1,4-2.35,3.16,3.16,0,0,1,3.36,2.66,13.34,13.34,0,0,1,.2,2.73v7.3h-1.65v-7.07a9.09,9.09,0,0,0-.3-2.59,1.91,1.91,0,0,0-2-1.38,3.71,3.71,0,0,0-3.27,2.29c0,.35,0,1,0,1.43v7.32H183v-7.07a9.4,9.4,0,0,0-.27-2.59,2,2,0,0,0-2.08-1.38,3.65,3.65,0,0,0-3.22,2.29v8.75Z"/><path class="cls-2" d="M204.81,177.5a1.92,1.92,0,0,1-2.06-1.71,3.9,3.9,0,0,1-7.22-1.91,3.32,3.32,0,0,1,2-3.23,7.87,7.87,0,0,1,3.51-.58,8.46,8.46,0,0,1,1.48.15v-1a4,4,0,0,0-.38-2,2.29,2.29,0,0,0-2.13-1,5.09,5.09,0,0,0-3.61,1.63h-.1v-1.73a5.7,5.7,0,0,1,4-1.55,3.72,3.72,0,0,1,3,1.15,5,5,0,0,1,.92,3.46c0,.93,0,3.31,0,4.37a7.08,7.08,0,0,0,.15,1.8.78.78,0,0,0,.8.56,1.9,1.9,0,0,0,.86-.18v1.46A2.26,2.26,0,0,1,204.81,177.5Zm-2.26-5.87a9.65,9.65,0,0,0-1.58-.18,6.29,6.29,0,0,0-2.41.35,2,2,0,0,0-1.3,2,2.23,2.23,0,0,0,2.45,2.28,3.19,3.19,0,0,0,2.86-1.75C202.55,173.86,202.55,173.06,202.55,171.63Z"/><path class="cls-2" d="M208.87,177.32V164.93h1.63v1.95a3,3,0,0,1,2.81-2.3,2,2,0,0,1,1.28.37v1.88h-.1a1.82,1.82,0,0,0-1.28-.4,2.78,2.78,0,0,0-2.68,2.29v8.6Z"/><path class="cls-2" d="M221.79,177.65c-3,0-5.49-2.34-5.49-6.45s2.46-6.62,5.69-6.62a4.53,4.53,0,0,1,3.37,1.25v2h-.1a4.07,4.07,0,0,0-3.32-1.6c-2.13,0-3.93,1.68-3.93,4.91,0,3.42,2,4.92,3.93,4.92a4.11,4.11,0,0,0,3.37-1.53h.1v1.83A5,5,0,0,1,221.79,177.65Z"/><path class="cls-2" d="M237,177.5a1.91,1.91,0,0,1-2.05-1.71,3.91,3.91,0,0,1-7.23-1.91,3.34,3.34,0,0,1,2-3.23,7.89,7.89,0,0,1,3.51-.58,8.25,8.25,0,0,1,1.48.15v-1a4,4,0,0,0-.37-2,2.31,2.31,0,0,0-2.13-1,5.13,5.13,0,0,0-3.62,1.63h-.1v-1.73a5.72,5.72,0,0,1,4-1.55,3.71,3.71,0,0,1,3,1.15,5,5,0,0,1,.93,3.46c0,.93,0,3.31,0,4.37a7.08,7.08,0,0,0,.15,1.8.78.78,0,0,0,.8.56,1.85,1.85,0,0,0,.85-.18v1.46A2.23,2.23,0,0,1,237,177.5Zm-2.26-5.87a9.4,9.4,0,0,0-1.58-.18,6.27,6.27,0,0,0-2.4.35,2,2,0,0,0-1.31,2,2.24,2.24,0,0,0,2.46,2.28,3.19,3.19,0,0,0,2.86-1.75C234.76,173.86,234.76,173.06,234.76,171.63Z"/><path class="cls-2" d="M240.18,174.39h.11a5.14,5.14,0,0,0,3.78,1.68c1.91,0,2.34-.88,2.34-1.91s-.51-1.56-2.09-2.11l-1.58-.52a3.22,3.22,0,0,1-2.43-3.32c0-2.15,1.53-3.63,4.09-3.63a5.34,5.34,0,0,1,3.21,1v1.84h-.1a4.65,4.65,0,0,0-3.24-1.28c-1.63,0-2.28.9-2.28,1.88s.4,1.58,1.61,2l1.75.58c1.83.57,2.76,1.68,2.76,3.36,0,2-1.18,3.69-4.09,3.69a5.61,5.61,0,0,1-3.84-1.38Z"/></g></g></svg>